<svg width="13" height="21" viewBox="0 0 13 21" fill="none" xmlns="http://www.w3.org/2000/svg">
<g clip-path="url(#clip0_2150_69)">
<path d="M12.4005 0C12.6749 0.10104 12.7752 0.289467 12.7752 0.559818C12.7663 1.54291 12.7722 2.52874 12.7722 3.51183C12.7722 3.92146 12.6129 4.058 12.1675 4.06346C11.4153 4.07165 10.6601 4.06892 9.91088 4.09623C9.5038 4.11261 9.10852 4.22185 8.90793 4.59597C8.81059 4.77347 8.74274 4.98375 8.73684 5.18036C8.71619 5.95865 8.72799 6.73693 8.72799 7.54798C8.80764 7.54798 8.88433 7.54798 8.96103 7.54798C9.97873 7.54798 10.9994 7.54798 12.0171 7.54798C12.4713 7.54798 12.6306 7.69272 12.6306 8.11326C12.6306 9.17828 12.6306 10.246 12.6306 11.3111C12.6306 11.707 12.4713 11.8545 12.0407 11.8545C11.023 11.8545 10.0023 11.8545 8.98463 11.8545C8.90498 11.8545 8.82534 11.8545 8.71914 11.8545C8.71914 11.9528 8.71914 12.032 8.71914 12.1112C8.71914 14.8666 8.71914 17.6192 8.71914 20.3746C8.71914 20.8607 8.57165 20.9945 8.04953 20.9945C6.88434 20.9945 5.7162 20.9945 4.55101 20.9945C4.09084 20.9945 3.93745 20.8525 3.93745 20.432C3.93745 17.6629 3.93745 14.8966 3.93745 12.1276C3.93745 12.0456 3.93745 11.9664 3.93745 11.8545C3.84305 11.8545 3.76636 11.8545 3.68671 11.8545C2.82241 11.8545 1.9581 11.8545 1.0938 11.8545C0.680821 11.8545 0.51563 11.707 0.51563 11.322C0.50973 10.2433 0.50973 9.16463 0.51268 8.08323C0.51268 7.70364 0.683771 7.55071 1.0938 7.54798C1.94925 7.54525 2.80766 7.54798 3.66311 7.54798C3.74276 7.54798 3.8224 7.54798 3.93155 7.54798C3.93155 7.4606 3.93155 7.38687 3.93155 7.31313C3.9345 6.46658 3.9109 5.6173 3.94925 4.77074C4.00529 3.56645 4.39467 2.4632 5.27668 1.54564C6.01414 0.775553 6.95219 0.33316 8.02888 0.125618C8.28847 0.0764629 8.54805 0.0409623 8.81059 0C10.0082 0 11.2029 0 12.4005 0Z" fill="#F9F9F9"/>
</g>
<defs>
<clipPath id="clip0_2150_69">
<rect width="12.2625" height="21" fill="white" transform="translate(0.509766)"/>
</clipPath>
</defs>
</svg>
