<svg width="24" height="22" viewBox="0 0 24 22" fill="none" xmlns="http://www.w3.org/2000/svg">
<g clip-path="url(#clip0_2150_63)">
<path d="M16.637 22C13.5347 22 10.4318 22 7.32952 22C7.29495 21.9903 7.26037 21.9742 7.22525 21.9721C6.52719 21.9259 5.85217 21.7755 5.20405 21.521C3.58018 20.8818 2.35582 19.8023 1.53757 18.2889C0.95311 17.2077 0.736886 16.0461 0.741276 14.8307C0.750606 12.2748 0.73963 9.71938 0.748411 7.16346C0.750057 6.71393 0.770911 6.25957 0.840608 5.81649C1.11226 4.08068 1.96124 2.65315 3.34529 1.54517C4.67447 0.480699 6.21931 -0.00373778 7.93374 2.1708e-05C10.6256 0.00592948 13.3179 0.00539241 16.0098 2.1708e-05C17.4492 -0.00266364 18.7888 0.329246 19.9995 1.10424C21.4845 2.05539 22.4833 3.36476 22.9547 5.0415C23.0831 5.49908 23.1358 5.97761 23.2231 6.44647C23.2231 9.48253 23.2231 12.5191 23.2231 15.5552C23.2115 15.61 23.1951 15.6637 23.1901 15.719C23.1139 16.6051 22.8779 17.4483 22.4553 18.2357C21.4999 20.0166 20.0384 21.2025 18.0535 21.7417C17.5925 21.8668 17.1095 21.9157 16.637 22ZM11.9833 19.9377C13.3514 19.9377 14.7195 19.9452 16.0877 19.9328C16.4658 19.9296 16.8527 19.906 17.2198 19.8243C19.5676 19.3023 21.1113 17.3984 21.1146 15.0396C21.1185 12.3473 21.1196 9.65493 21.1108 6.9626C21.1097 6.60007 21.0822 6.22842 20.9999 5.8761C20.4659 3.57852 18.521 2.06774 16.1102 2.06452C13.3591 2.06076 10.608 2.05968 7.85691 2.06828C7.48647 2.06935 7.10671 2.09621 6.7467 2.17677C4.41653 2.69558 2.86126 4.58982 2.85358 6.91909C2.84479 9.63989 2.85028 12.3612 2.85248 15.082C2.85303 15.777 2.97266 16.4537 3.28438 17.081C4.21019 18.9441 5.74241 19.9006 7.85636 19.9334C9.23163 19.9549 10.6075 19.9377 11.9833 19.9377Z" fill="#F9F9F9"/>
<path d="M11.9574 16.4993C8.84686 16.4724 6.32681 13.9788 6.36468 10.9642C6.40309 7.9228 8.93247 5.47483 12.009 5.50168C15.1195 5.52854 17.6396 8.02216 17.6017 11.0367C17.5639 14.0782 15.0345 16.5261 11.9574 16.4993ZM11.992 14.4375C13.9177 14.4321 15.4933 12.8869 15.4949 11.0029C15.4966 9.11026 13.9078 7.55866 11.975 7.56457C10.0482 7.56994 8.47368 9.11348 8.47204 10.9986C8.46984 12.8902 10.0597 14.4428 11.992 14.4375Z" fill="#F9F9F9"/>
<path d="M18.024 5.81655C17.614 5.81655 17.2858 5.49968 17.2803 5.09902C17.2749 4.69192 17.6118 4.35518 18.024 4.35571C18.4339 4.35625 18.7796 4.69998 18.772 5.09902C18.7648 5.49699 18.4312 5.81655 18.024 5.81655Z" fill="#F9F9F9"/>
</g>
<defs>
<clipPath id="clip0_2150_63">
<rect width="22.4813" height="22" fill="white" transform="translate(0.741211)"/>
</clipPath>
</defs>
</svg>
