<svg width="26" height="19" viewBox="0 0 26 19" fill="none" xmlns="http://www.w3.org/2000/svg">
<g clip-path="url(#clip0_2150_67)">
<path d="M0.55957 16.862C3.28965 17.0939 5.72526 16.4656 7.94934 14.876C6.44158 14.7932 5.22948 14.2505 4.26677 13.2252C3.79624 12.7243 3.37558 12.0075 3.28303 11.5477C4.00356 11.6299 4.71568 11.6476 5.45544 11.4523C2.70914 10.7988 1.42493 8.51979 1.49824 6.72626C1.8552 6.85421 2.20074 7.00557 2.56251 7.10096C2.91766 7.19464 3.28904 7.23119 3.66884 7.26089C2.47357 6.39212 1.74463 5.27202 1.56374 3.86804C1.42072 2.75879 1.67792 1.71751 2.21636 0.892145C4.94043 3.93886 8.38502 5.6233 12.6114 5.89176C12.4876 5.25488 12.4726 4.65171 12.5592 4.04282C12.8104 2.26985 14.3373 0.62083 16.163 0.179302C18.0343 -0.27365 19.6755 0.131322 21.0901 1.38394C21.1604 1.4462 21.3029 1.48161 21.3978 1.46333C22.3767 1.27427 23.3016 0.943552 24.1741 0.479747C24.2354 0.447189 24.3003 0.419772 24.4085 0.367794C24.0245 1.48732 23.3082 2.30812 22.3365 2.95356C23.2787 2.86674 24.1675 2.61485 25.0323 2.27442C25.0497 2.29384 25.0677 2.31326 25.0852 2.33268C24.6789 2.78449 24.2931 3.25458 23.8605 3.6824C23.5179 4.02054 23.1117 4.30043 22.7469 4.61972C22.6664 4.68998 22.5949 4.81678 22.5949 4.91731C22.5883 9.85809 20.5409 13.8273 16.3096 16.7203C14.5248 17.9404 12.4858 18.6013 10.3056 18.8726C8.2456 19.129 6.21503 19.0057 4.2175 18.459C2.95732 18.1146 1.77167 17.6057 0.659927 16.9443C0.634087 16.9288 0.614256 16.9071 0.55957 16.862Z" fill="#F9F9F9"/>
</g>
<defs>
<clipPath id="clip0_2150_67">
<rect width="24.525" height="19" fill="white" transform="translate(0.55957)"/>
</clipPath>
</defs>
</svg>
