<svg width="20" height="21" viewBox="0 0 20 21" fill="none" xmlns="http://www.w3.org/2000/svg">
<g clip-path="url(#clip0_1514_116)">
<path d="M19.9895 10.6871C19.9895 9.86767 19.9214 9.26973 19.7742 8.64966H10.1992V12.348H15.8195C15.7062 13.2671 15.0943 14.6512 13.7346 15.5813L13.7155 15.7051L16.7429 17.9969L16.9527 18.0174C18.8789 16.2789 19.9895 13.721 19.9895 10.6871Z" fill="#4285F4"/>
<path d="M10.1993 20.4314C12.9527 20.4314 15.2643 19.5456 16.9527 18.0175L13.7346 15.5814C12.8734 16.1683 11.7176 16.578 10.1993 16.578C7.50242 16.578 5.21352 14.8396 4.39759 12.4368L4.27799 12.4467L1.13003 14.8274L1.08887 14.9392C2.76588 18.1946 6.2106 20.4314 10.1993 20.4314Z" fill="#34A853"/>
<path d="M4.39748 12.4367C4.18219 11.8166 4.05759 11.1522 4.05759 10.4657C4.05759 9.77915 4.18219 9.11479 4.38615 8.49472L4.38045 8.36266L1.19304 5.94373L1.08876 5.9922C0.397576 7.34311 0.000976562 8.86014 0.000976562 10.4657C0.000976562 12.0713 0.397576 13.5882 1.08876 14.9391L4.39748 12.4367Z" fill="#FBBC05"/>
<path d="M10.1993 4.35336C12.1142 4.35336 13.406 5.16168 14.1425 5.83718L17.0207 3.09107C15.253 1.4855 12.9527 0.5 10.1993 0.5C6.2106 0.5 2.76588 2.73672 1.08887 5.99214L4.38626 8.49466C5.21352 6.09183 7.50242 4.35336 10.1993 4.35336Z" fill="#EB4335"/>
</g>
<defs>
<clipPath id="clip0_1514_116">
<rect width="20" height="20" fill="white" transform="translate(0 0.5)"/>
</clipPath>
</defs>
</svg>
