<svg width="244" height="23" viewBox="0 0 244 23" fill="none" xmlns="http://www.w3.org/2000/svg">
<mask id="path-1-outside-1_1496_2" maskUnits="userSpaceOnUse" x="-1" y="-1" width="246" height="25" fill="black">
<rect fill="white" x="-1" y="-1" width="246" height="25"/>
<path d="M4.479 3.865V9.29H11.764V12.731H4.479V18.466H12.694V22H0.139V0.330998H12.694V3.865H4.479ZM31.5887 0.362C33.8621 0.362 35.8564 0.806333 37.5717 1.695C39.3077 2.58367 40.6407 3.85467 41.5707 5.508C42.5214 7.14067 42.9967 9.042 42.9967 11.212C42.9967 13.382 42.5214 15.2833 41.5707 16.916C40.6407 18.528 39.3077 19.7783 37.5717 20.667C35.8564 21.5557 33.8621 22 31.5887 22H24.0247V0.362H31.5887ZM31.4337 18.311C33.7071 18.311 35.4637 17.691 36.7037 16.451C37.9437 15.211 38.5637 13.4647 38.5637 11.212C38.5637 8.95933 37.9437 7.20267 36.7037 5.942C35.4637 4.66067 33.7071 4.02 31.4337 4.02H28.3647V18.311H31.4337ZM57.9102 0.362V13.754C57.9102 15.2213 58.2925 16.3477 59.0572 17.133C59.8218 17.8977 60.8965 18.28 62.2812 18.28C63.6865 18.28 64.7715 17.8977 65.5362 17.133C66.3008 16.3477 66.6832 15.2213 66.6832 13.754V0.362H71.0542V13.723C71.0542 15.5623 70.6512 17.1227 69.8452 18.404C69.0598 19.6647 67.9955 20.6153 66.6522 21.256C65.3295 21.8967 63.8518 22.217 62.2192 22.217C60.6072 22.217 59.1398 21.8967 57.8172 21.256C56.5152 20.6153 55.4818 19.6647 54.7172 18.404C53.9525 17.1227 53.5702 15.5623 53.5702 13.723V0.362H57.9102ZM81.5801 11.15C81.5801 9.02133 82.0555 7.12 83.0061 5.446C83.9775 3.75133 85.2898 2.439 86.9431 1.509C88.6171 0.558333 90.4875 0.0829995 92.5541 0.0829995C94.9721 0.0829995 97.0905 0.702999 98.9091 1.943C100.728 3.183 101.999 4.89833 102.722 7.089H97.7311C97.2351 6.05567 96.5325 5.28067 95.6231 4.764C94.7345 4.24733 93.7011 3.989 92.5231 3.989C91.2625 3.989 90.1361 4.28867 89.1441 4.888C88.1728 5.46667 87.4081 6.29333 86.8501 7.368C86.3128 8.44267 86.0441 9.70333 86.0441 11.15C86.0441 12.576 86.3128 13.8367 86.8501 14.932C87.4081 16.0067 88.1728 16.8437 89.1441 17.443C90.1361 18.0217 91.2625 18.311 92.5231 18.311C93.7011 18.311 94.7345 18.0527 95.6231 17.536C96.5325 16.9987 97.2351 16.2133 97.7311 15.18H102.722C101.999 17.3913 100.728 19.117 98.9091 20.357C97.1111 21.5763 94.9928 22.186 92.5541 22.186C90.4875 22.186 88.6171 21.721 86.9431 20.791C85.2898 19.8403 83.9775 18.528 83.0061 16.854C82.0555 15.18 81.5801 13.2787 81.5801 11.15ZM127.084 17.877H118.466L117.04 22H112.483L120.264 0.330998H125.317L133.098 22H128.51L127.084 17.877ZM125.906 14.405L122.775 5.353L119.644 14.405H125.906ZM166.984 0.362V22H162.644V7.926L156.847 22H153.561L147.733 7.926V22H143.393V0.362H148.322L155.204 16.451L162.086 0.362H166.984ZM190.937 10.902C192.157 11.1293 193.159 11.739 193.944 12.731C194.73 13.723 195.122 14.8597 195.122 16.141C195.122 17.2983 194.833 18.3213 194.254 19.21C193.696 20.078 192.88 20.76 191.805 21.256C190.731 21.752 189.46 22 187.992 22H178.661V0.362H187.589C189.057 0.362 190.317 0.599666 191.371 1.075C192.446 1.55033 193.252 2.21167 193.789 3.059C194.347 3.90633 194.626 4.86733 194.626 5.942C194.626 7.20267 194.285 8.25667 193.603 9.104C192.942 9.95133 192.053 10.5507 190.937 10.902ZM183.001 9.29H186.969C188.003 9.29 188.798 9.06267 189.356 8.608C189.914 8.13267 190.193 7.461 190.193 6.593C190.193 5.725 189.914 5.05333 189.356 4.578C188.798 4.10267 188.003 3.865 186.969 3.865H183.001V9.29ZM187.372 18.466C188.426 18.466 189.243 18.218 189.821 17.722C190.421 17.226 190.72 16.5233 190.72 15.614C190.72 14.684 190.41 13.9607 189.79 13.444C189.17 12.9067 188.333 12.638 187.279 12.638H183.001V18.466H187.372ZM210.308 0.362V22H205.968V0.362H210.308ZM232.027 22.217C230.001 22.217 228.141 21.7417 226.447 20.791C224.752 19.8403 223.409 18.528 222.417 16.854C221.425 15.1593 220.929 13.2477 220.929 11.119C220.929 9.011 221.425 7.12 222.417 5.446C223.409 3.75133 224.752 2.42866 226.447 1.478C228.141 0.527333 230.001 0.0519999 232.027 0.0519999C234.073 0.0519999 235.933 0.527333 237.607 1.478C239.301 2.42866 240.634 3.75133 241.606 5.446C242.598 7.12 243.094 9.011 243.094 11.119C243.094 13.2477 242.598 15.1593 241.606 16.854C240.634 18.528 239.301 19.8403 237.607 20.791C235.912 21.7417 234.052 22.217 232.027 22.217ZM232.027 18.342C233.329 18.342 234.476 18.0527 235.468 17.474C236.46 16.8747 237.235 16.0273 237.793 14.932C238.351 13.8367 238.63 12.5657 238.63 11.119C238.63 9.67233 238.351 8.41167 237.793 7.337C237.235 6.24167 236.46 5.40467 235.468 4.826C234.476 4.24733 233.329 3.958 232.027 3.958C230.725 3.958 229.567 4.24733 228.555 4.826C227.563 5.40467 226.788 6.24167 226.23 7.337C225.672 8.41167 225.393 9.67233 225.393 11.119C225.393 12.5657 225.672 13.8367 226.23 14.932C226.788 16.0273 227.563 16.8747 228.555 17.474C229.567 18.0527 230.725 18.342 232.027 18.342Z"/>
</mask>
<path d="M4.479 3.865V9.29H11.764V12.731H4.479V18.466H12.694V22H0.139V0.330998H12.694V3.865H4.479ZM31.5887 0.362C33.8621 0.362 35.8564 0.806333 37.5717 1.695C39.3077 2.58367 40.6407 3.85467 41.5707 5.508C42.5214 7.14067 42.9967 9.042 42.9967 11.212C42.9967 13.382 42.5214 15.2833 41.5707 16.916C40.6407 18.528 39.3077 19.7783 37.5717 20.667C35.8564 21.5557 33.8621 22 31.5887 22H24.0247V0.362H31.5887ZM31.4337 18.311C33.7071 18.311 35.4637 17.691 36.7037 16.451C37.9437 15.211 38.5637 13.4647 38.5637 11.212C38.5637 8.95933 37.9437 7.20267 36.7037 5.942C35.4637 4.66067 33.7071 4.02 31.4337 4.02H28.3647V18.311H31.4337ZM57.9102 0.362V13.754C57.9102 15.2213 58.2925 16.3477 59.0572 17.133C59.8218 17.8977 60.8965 18.28 62.2812 18.28C63.6865 18.28 64.7715 17.8977 65.5362 17.133C66.3008 16.3477 66.6832 15.2213 66.6832 13.754V0.362H71.0542V13.723C71.0542 15.5623 70.6512 17.1227 69.8452 18.404C69.0598 19.6647 67.9955 20.6153 66.6522 21.256C65.3295 21.8967 63.8518 22.217 62.2192 22.217C60.6072 22.217 59.1398 21.8967 57.8172 21.256C56.5152 20.6153 55.4818 19.6647 54.7172 18.404C53.9525 17.1227 53.5702 15.5623 53.5702 13.723V0.362H57.9102ZM81.5801 11.15C81.5801 9.02133 82.0555 7.12 83.0061 5.446C83.9775 3.75133 85.2898 2.439 86.9431 1.509C88.6171 0.558333 90.4875 0.0829995 92.5541 0.0829995C94.9721 0.0829995 97.0905 0.702999 98.9091 1.943C100.728 3.183 101.999 4.89833 102.722 7.089H97.7311C97.2351 6.05567 96.5325 5.28067 95.6231 4.764C94.7345 4.24733 93.7011 3.989 92.5231 3.989C91.2625 3.989 90.1361 4.28867 89.1441 4.888C88.1728 5.46667 87.4081 6.29333 86.8501 7.368C86.3128 8.44267 86.0441 9.70333 86.0441 11.15C86.0441 12.576 86.3128 13.8367 86.8501 14.932C87.4081 16.0067 88.1728 16.8437 89.1441 17.443C90.1361 18.0217 91.2625 18.311 92.5231 18.311C93.7011 18.311 94.7345 18.0527 95.6231 17.536C96.5325 16.9987 97.2351 16.2133 97.7311 15.18H102.722C101.999 17.3913 100.728 19.117 98.9091 20.357C97.1111 21.5763 94.9928 22.186 92.5541 22.186C90.4875 22.186 88.6171 21.721 86.9431 20.791C85.2898 19.8403 83.9775 18.528 83.0061 16.854C82.0555 15.18 81.5801 13.2787 81.5801 11.15ZM127.084 17.877H118.466L117.04 22H112.483L120.264 0.330998H125.317L133.098 22H128.51L127.084 17.877ZM125.906 14.405L122.775 5.353L119.644 14.405H125.906ZM166.984 0.362V22H162.644V7.926L156.847 22H153.561L147.733 7.926V22H143.393V0.362H148.322L155.204 16.451L162.086 0.362H166.984ZM190.937 10.902C192.157 11.1293 193.159 11.739 193.944 12.731C194.73 13.723 195.122 14.8597 195.122 16.141C195.122 17.2983 194.833 18.3213 194.254 19.21C193.696 20.078 192.88 20.76 191.805 21.256C190.731 21.752 189.46 22 187.992 22H178.661V0.362H187.589C189.057 0.362 190.317 0.599666 191.371 1.075C192.446 1.55033 193.252 2.21167 193.789 3.059C194.347 3.90633 194.626 4.86733 194.626 5.942C194.626 7.20267 194.285 8.25667 193.603 9.104C192.942 9.95133 192.053 10.5507 190.937 10.902ZM183.001 9.29H186.969C188.003 9.29 188.798 9.06267 189.356 8.608C189.914 8.13267 190.193 7.461 190.193 6.593C190.193 5.725 189.914 5.05333 189.356 4.578C188.798 4.10267 188.003 3.865 186.969 3.865H183.001V9.29ZM187.372 18.466C188.426 18.466 189.243 18.218 189.821 17.722C190.421 17.226 190.72 16.5233 190.72 15.614C190.72 14.684 190.41 13.9607 189.79 13.444C189.17 12.9067 188.333 12.638 187.279 12.638H183.001V18.466H187.372ZM210.308 0.362V22H205.968V0.362H210.308ZM232.027 22.217C230.001 22.217 228.141 21.7417 226.447 20.791C224.752 19.8403 223.409 18.528 222.417 16.854C221.425 15.1593 220.929 13.2477 220.929 11.119C220.929 9.011 221.425 7.12 222.417 5.446C223.409 3.75133 224.752 2.42866 226.447 1.478C228.141 0.527333 230.001 0.0519999 232.027 0.0519999C234.073 0.0519999 235.933 0.527333 237.607 1.478C239.301 2.42866 240.634 3.75133 241.606 5.446C242.598 7.12 243.094 9.011 243.094 11.119C243.094 13.2477 242.598 15.1593 241.606 16.854C240.634 18.528 239.301 19.8403 237.607 20.791C235.912 21.7417 234.052 22.217 232.027 22.217ZM232.027 18.342C233.329 18.342 234.476 18.0527 235.468 17.474C236.46 16.8747 237.235 16.0273 237.793 14.932C238.351 13.8367 238.63 12.5657 238.63 11.119C238.63 9.67233 238.351 8.41167 237.793 7.337C237.235 6.24167 236.46 5.40467 235.468 4.826C234.476 4.24733 233.329 3.958 232.027 3.958C230.725 3.958 229.567 4.24733 228.555 4.826C227.563 5.40467 226.788 6.24167 226.23 7.337C225.672 8.41167 225.393 9.67233 225.393 11.119C225.393 12.5657 225.672 13.8367 226.23 14.932C226.788 16.0273 227.563 16.8747 228.555 17.474C229.567 18.0527 230.725 18.342 232.027 18.342Z" fill="#0063C7"/>
<path d="M4.479 3.865V2.865H3.479V3.865H4.479ZM4.479 9.29H3.479V10.29H4.479V9.29ZM11.764 9.29H12.764V8.29H11.764V9.29ZM11.764 12.731V13.731H12.764V12.731H11.764ZM4.479 12.731V11.731H3.479V12.731H4.479ZM4.479 18.466H3.479V19.466H4.479V18.466ZM12.694 18.466H13.694V17.466H12.694V18.466ZM12.694 22V23H13.694V22H12.694ZM0.139 22H-0.861V23H0.139V22ZM0.139 0.330998V-0.669002H-0.861V0.330998H0.139ZM12.694 0.330998H13.694V-0.669002H12.694V0.330998ZM12.694 3.865V4.865H13.694V3.865H12.694ZM3.479 3.865V9.29H5.479V3.865H3.479ZM4.479 10.29H11.764V8.29H4.479V10.29ZM10.764 9.29V12.731H12.764V9.29H10.764ZM11.764 11.731H4.479V13.731H11.764V11.731ZM3.479 12.731V18.466H5.479V12.731H3.479ZM4.479 19.466H12.694V17.466H4.479V19.466ZM11.694 18.466V22H13.694V18.466H11.694ZM12.694 21H0.139V23H12.694V21ZM1.139 22V0.330998H-0.861V22H1.139ZM0.139 1.331H12.694V-0.669002H0.139V1.331ZM11.694 0.330998V3.865H13.694V0.330998H11.694ZM12.694 2.865H4.479V4.865H12.694V2.865ZM37.5717 1.695L37.1117 2.58293L37.1161 2.58515L37.5717 1.695ZM41.5707 5.508L40.6992 5.99826L40.7028 6.00475L40.7066 6.01119L41.5707 5.508ZM41.5707 16.916L40.7066 16.4128L40.7046 16.4163L41.5707 16.916ZM37.5717 20.667L37.1161 19.7768L37.1117 19.7791L37.5717 20.667ZM24.0247 22H23.0247V23H24.0247V22ZM24.0247 0.362V-0.638H23.0247V0.362H24.0247ZM36.7037 16.451L35.9966 15.7439L36.7037 16.451ZM36.7037 5.942L35.9851 6.63744L35.9908 6.64324L36.7037 5.942ZM28.3647 4.02V3.02H27.3647V4.02H28.3647ZM28.3647 18.311H27.3647V19.311H28.3647V18.311ZM31.5887 1.362C33.7302 1.362 35.5617 1.77987 37.1117 2.58292L38.0317 0.807082C36.1511 -0.16721 33.9939 -0.638 31.5887 -0.638V1.362ZM37.1161 2.58515C38.6824 3.38694 39.8683 4.52122 40.6992 5.99826L42.4423 5.01774C41.4132 3.18811 39.9331 1.78039 38.0274 0.804851L37.1161 2.58515ZM40.7066 6.01119C41.5558 7.46958 41.9967 9.19212 41.9967 11.212H43.9967C43.9967 8.89188 43.4871 6.81176 42.4349 5.00481L40.7066 6.01119ZM41.9967 11.212C41.9967 13.2319 41.5558 14.9544 40.7066 16.4128L42.4349 17.4192C43.4871 15.6122 43.9967 13.5321 43.9967 11.212H41.9967ZM40.7046 16.4163C39.8756 17.8531 38.6891 18.9716 37.1161 19.7769L38.0274 21.5571C39.9264 20.5851 41.4058 19.2029 42.4369 17.4157L40.7046 16.4163ZM37.1117 19.7791C35.5617 20.5821 33.7302 21 31.5887 21V23C33.9939 23 36.1511 22.5292 38.0317 21.5549L37.1117 19.7791ZM31.5887 21H24.0247V23H31.5887V21ZM25.0247 22V0.362H23.0247V22H25.0247ZM24.0247 1.362H31.5887V-0.638H24.0247V1.362ZM31.4337 19.311C33.8903 19.311 35.9324 18.6366 37.4109 17.1581L35.9966 15.7439C34.9951 16.7454 33.5239 17.311 31.4337 17.311V19.311ZM37.4109 17.1581C38.8877 15.6813 39.5637 13.6509 39.5637 11.212H37.5637C37.5637 13.2784 36.9998 14.7407 35.9966 15.7439L37.4109 17.1581ZM39.5637 11.212C39.5637 8.77221 38.8874 6.73601 37.4167 5.24076L35.9908 6.64324C37.0001 7.66932 37.5637 9.14645 37.5637 11.212H39.5637ZM37.4223 5.24658C35.9455 3.72055 33.8994 3.02 31.4337 3.02V5.02C33.5147 5.02 34.9819 5.60078 35.9851 6.63742L37.4223 5.24658ZM31.4337 3.02H28.3647V5.02H31.4337V3.02ZM27.3647 4.02V18.311H29.3647V4.02H27.3647ZM28.3647 19.311H31.4337V17.311H28.3647V19.311ZM57.9102 0.362H58.9102V-0.638H57.9102V0.362ZM59.0572 17.133L58.3406 17.8307L58.3501 17.8401L59.0572 17.133ZM65.5362 17.133L66.2433 17.8402L66.2526 17.8306L65.5362 17.133ZM66.6832 0.362V-0.638H65.6832V0.362H66.6832ZM71.0542 0.362H72.0542V-0.638H71.0542V0.362ZM69.8452 18.404L68.9987 17.8715L68.9964 17.8753L69.8452 18.404ZM66.6522 21.256L66.2217 20.3534L66.2162 20.356L66.6522 21.256ZM57.8172 21.256L57.3756 22.1533L57.3812 22.156L57.8172 21.256ZM54.7172 18.404L53.8584 18.9165L53.8622 18.9226L54.7172 18.404ZM53.5702 0.362V-0.638H52.5702V0.362H53.5702ZM56.9102 0.362V13.754H58.9102V0.362H56.9102ZM56.9102 13.754C56.9102 15.3913 57.3395 16.8024 58.3407 17.8306L59.7736 16.4354C59.2455 15.893 58.9102 15.0514 58.9102 13.754H56.9102ZM58.3501 17.8401C59.351 18.841 60.7092 19.28 62.2812 19.28V17.28C61.0838 17.28 60.2927 16.9543 59.7643 16.4259L58.3501 17.8401ZM62.2812 19.28C63.8689 19.28 65.2397 18.8437 66.2433 17.8401L64.8291 16.4259C64.3033 16.9516 63.5041 17.28 62.2812 17.28V19.28ZM66.2526 17.8306C67.2538 16.8024 67.6832 15.3913 67.6832 13.754H65.6832C65.6832 15.0514 65.3478 15.893 64.8197 16.4354L66.2526 17.8306ZM67.6832 13.754V0.362H65.6832V13.754H67.6832ZM66.6832 1.362H71.0542V-0.638H66.6832V1.362ZM70.0542 0.362V13.723H72.0542V0.362H70.0542ZM70.0542 13.723C70.0542 15.4147 69.6847 16.781 68.9987 17.8715L70.6916 18.9365C71.6176 17.4644 72.0542 15.71 72.0542 13.723H70.0542ZM68.9964 17.8753C68.3122 18.9736 67.3931 19.7947 66.2217 20.3534L67.0826 22.1586C68.5979 21.436 69.8075 20.3557 70.6939 18.9327L68.9964 17.8753ZM66.2162 20.356C65.0439 20.9239 63.7178 21.217 62.2192 21.217V23.217C63.9859 23.217 65.6151 22.8695 67.0881 22.156L66.2162 20.356ZM62.2192 21.217C60.7433 21.217 59.4271 20.9247 58.2531 20.356L57.3812 22.156C58.8525 22.8686 60.471 23.217 62.2192 23.217V21.217ZM58.2587 20.3587C57.1307 19.8037 56.2396 18.9858 55.5722 17.8854L53.8622 18.9226C54.724 20.3436 55.8996 21.427 57.3757 22.1533L58.2587 20.3587ZM55.5759 17.8915C54.923 16.7975 54.5702 15.4237 54.5702 13.723H52.5702C52.5702 15.701 52.982 17.4478 53.8585 18.9165L55.5759 17.8915ZM54.5702 13.723V0.362H52.5702V13.723H54.5702ZM53.5702 1.362H57.9102V-0.638H53.5702V1.362ZM83.0061 5.446L82.1385 4.94872L82.1366 4.95217L83.0061 5.446ZM86.9431 1.509L87.4334 2.38058L87.4369 2.37856L86.9431 1.509ZM102.722 7.089V8.089H104.105L103.672 6.77546L102.722 7.089ZM97.7311 7.089L96.8296 7.52173L97.1019 8.089H97.7311V7.089ZM95.6231 4.764L95.1205 5.62855L95.1291 5.63346L95.6231 4.764ZM89.1441 4.888L89.6559 5.74712L89.6612 5.74391L89.1441 4.888ZM86.8501 7.368L85.9626 6.90718L85.9591 6.91396L85.9557 6.92079L86.8501 7.368ZM86.8501 14.932L85.9523 15.3724L85.9574 15.3827L85.9626 15.3928L86.8501 14.932ZM89.1441 17.443L88.619 18.294L88.6295 18.3005L88.6402 18.3068L89.1441 17.443ZM95.6231 17.536L96.1257 18.4005L96.1319 18.3969L95.6231 17.536ZM97.7311 15.18V14.18H97.1019L96.8296 14.7473L97.7311 15.18ZM102.722 15.18L103.673 15.4909L104.101 14.18H102.722V15.18ZM98.9091 20.357L99.4704 21.1846L99.4725 21.1832L98.9091 20.357ZM86.9431 20.791L86.4446 21.6579L86.451 21.6616L86.4575 21.6652L86.9431 20.791ZM83.0061 16.854L82.1365 17.3478L82.1412 17.3559L83.0061 16.854ZM82.5801 11.15C82.5801 9.17571 83.0193 7.44778 83.8757 5.93982L82.1366 4.95217C81.0916 6.79222 80.5801 8.86696 80.5801 11.15H82.5801ZM83.8737 5.94328C84.7581 4.40025 85.9421 3.21941 87.4334 2.38058L86.4529 0.637424C84.6375 1.65858 83.1968 3.10241 82.1385 4.94872L83.8737 5.94328ZM87.4369 2.37856C88.9494 1.51965 90.6474 1.083 92.5541 1.083V-0.917001C90.3275 -0.917001 88.2849 -0.402987 86.4493 0.639439L87.4369 2.37856ZM92.5541 1.083C94.7918 1.083 96.7095 1.65356 98.3458 2.76923L99.4725 1.11677C97.4714 -0.247558 95.1524 -0.917001 92.5541 -0.917001V1.083ZM98.3458 2.76923C99.9737 3.87918 101.115 5.40981 101.773 7.40254L103.672 6.77546C102.883 4.38686 101.482 2.48682 99.4725 1.11677L98.3458 2.76923ZM102.722 6.089H97.7311V8.089H102.722V6.089ZM98.6326 6.65627C98.0573 5.4577 97.2206 4.52153 96.1171 3.89454L95.1291 5.63346C95.8443 6.0398 96.4129 6.65364 96.8296 7.52173L98.6326 6.65627ZM96.1257 3.89949C95.0633 3.28179 93.8515 2.989 92.5231 2.989V4.989C93.5507 4.989 94.4056 5.21288 95.1205 5.62851L96.1257 3.89949ZM92.5231 2.989C91.0967 2.989 89.7886 3.33029 88.627 4.03208L89.6612 5.74391C90.4836 5.24705 91.4282 4.989 92.5231 4.989V2.989ZM88.6323 4.0289C87.4897 4.70959 86.6 5.6796 85.9626 6.90718L87.7376 7.82881C88.2162 6.90707 88.8559 6.22374 89.6559 5.7471L88.6323 4.0289ZM85.9557 6.92079C85.3362 8.15984 85.0441 9.5794 85.0441 11.15H87.0441C87.0441 9.82726 87.2894 8.72549 87.7445 7.81521L85.9557 6.92079ZM85.0441 11.15C85.0441 12.703 85.3373 14.1187 85.9523 15.3724L87.7479 14.4916C87.2883 13.5547 87.0441 12.449 87.0441 11.15H85.0441ZM85.9626 15.3928C86.5986 16.6177 87.4844 17.5939 88.619 18.294L89.6692 16.592C88.8612 16.0934 88.2176 15.3956 87.7376 14.4712L85.9626 15.3928ZM88.6402 18.3068C89.7999 18.9832 91.1032 19.311 92.5231 19.311V17.311C91.4217 17.311 90.4724 17.0601 89.648 16.5792L88.6402 18.3068ZM92.5231 19.311C93.8515 19.311 95.0633 19.0182 96.1257 18.4005L95.1205 16.6715C94.4056 17.0871 93.5507 17.311 92.5231 17.311V19.311ZM96.1319 18.3969C97.2262 17.7503 98.0586 16.8086 98.6326 15.6127L96.8296 14.7473C96.4116 15.618 95.8387 16.2471 95.1144 16.6751L96.1319 18.3969ZM97.7311 16.18H102.722V14.18H97.7311V16.18ZM101.772 14.8691C101.113 16.8834 99.9712 18.4225 98.3458 19.5308L99.4725 21.1832C101.484 19.8115 102.885 17.8992 103.673 15.4909L101.772 14.8691ZM98.3478 19.5294C96.7354 20.6229 94.8181 21.186 92.5541 21.186V23.186C95.1675 23.186 97.4869 22.5298 99.4704 21.1846L98.3478 19.5294ZM92.5541 21.186C90.6435 21.186 88.9425 20.7578 87.4288 19.9168L86.4575 21.6652C88.2917 22.6842 90.3314 23.186 92.5541 23.186V21.186ZM87.4416 19.9241C85.9427 19.0622 84.7557 17.8768 83.8711 16.3521L82.1412 17.3559C83.1992 19.1792 84.6369 20.6185 86.4446 21.6579L87.4416 19.9241ZM83.8757 16.3602C83.0193 14.8522 82.5801 13.1243 82.5801 11.15H80.5801C80.5801 13.433 81.0916 15.5078 82.1366 17.3478L83.8757 16.3602ZM127.084 17.877L128.029 17.5501L127.796 16.877H127.084V17.877ZM118.466 17.877V16.877H117.754L117.521 17.5501L118.466 17.877ZM117.04 22V23H117.752L117.985 22.3269L117.04 22ZM112.483 22L111.542 21.662L111.061 23H112.483V22ZM120.264 0.330998V-0.669002H119.56L119.323 -0.00695801L120.264 0.330998ZM125.317 0.330998L126.258 -0.00695801L126.02 -0.669002H125.317V0.330998ZM133.098 22V23H134.519L134.039 21.662L133.098 22ZM128.51 22L127.565 22.3269L127.798 23H128.51V22ZM125.906 14.405V15.405H127.31L126.851 14.0781L125.906 14.405ZM122.775 5.353L123.72 5.02611L122.775 2.29385L121.83 5.02611L122.775 5.353ZM119.644 14.405L118.699 14.0781L118.24 15.405H119.644V14.405ZM127.084 16.877H118.466V18.877H127.084V16.877ZM117.521 17.5501L116.095 21.6731L117.985 22.3269L119.411 18.2039L117.521 17.5501ZM117.04 21H112.483V23H117.04V21ZM113.424 22.338L121.205 0.668955L119.323 -0.00695801L111.542 21.662L113.424 22.338ZM120.264 1.331H125.317V-0.669002H120.264V1.331ZM124.376 0.668955L132.157 22.338L134.039 21.662L126.258 -0.00695801L124.376 0.668955ZM133.098 21H128.51V23H133.098V21ZM129.455 21.6731L128.029 17.5501L126.139 18.2039L127.565 22.3269L129.455 21.6731ZM126.851 14.0781L123.72 5.02611L121.83 5.67989L124.961 14.7319L126.851 14.0781ZM121.83 5.02611L118.699 14.0781L120.589 14.7319L123.72 5.67989L121.83 5.02611ZM119.644 15.405H125.906V13.405H119.644V15.405ZM166.984 0.362H167.984V-0.638H166.984V0.362ZM166.984 22V23H167.984V22H166.984ZM162.644 22H161.644V23H162.644V22ZM162.644 7.926H163.644L161.719 7.54515L162.644 7.926ZM156.847 22V23H157.517L157.772 22.3809L156.847 22ZM153.561 22L152.637 22.3826L152.893 23H153.561V22ZM147.733 7.926L148.657 7.54341L146.733 7.926H147.733ZM147.733 22V23H148.733V22H147.733ZM143.393 22H142.393V23H143.393V22ZM143.393 0.362V-0.638H142.393V0.362H143.393ZM148.322 0.362L149.241 -0.0312786L148.982 -0.638H148.322V0.362ZM155.204 16.451L154.284 16.8443L155.204 18.9937L156.123 16.8443L155.204 16.451ZM162.086 0.362V-0.638H161.426L161.166 -0.0312786L162.086 0.362ZM165.984 0.362V22H167.984V0.362H165.984ZM166.984 21H162.644V23H166.984V21ZM163.644 22V7.926H161.644V22H163.644ZM161.719 7.54515L155.922 21.6191L157.772 22.3809L163.569 8.30685L161.719 7.54515ZM156.847 21H153.561V23H156.847V21ZM154.485 21.6174L148.657 7.54341L146.809 8.30859L152.637 22.3826L154.485 21.6174ZM146.733 7.926V22H148.733V7.926H146.733ZM147.733 21H143.393V23H147.733V21ZM144.393 22V0.362H142.393V22H144.393ZM143.393 1.362H148.322V-0.638H143.393V1.362ZM147.402 0.755278L154.284 16.8443L156.123 16.0577L149.241 -0.0312786L147.402 0.755278ZM156.123 16.8443L163.005 0.755278L161.166 -0.0312786L154.284 16.0577L156.123 16.8443ZM162.086 1.362H166.984V-0.638H162.086V1.362ZM190.937 10.902L190.637 9.94815L190.754 11.8851L190.937 10.902ZM193.944 12.731L194.729 12.1103H194.729L193.944 12.731ZM194.254 19.21L193.416 18.6643L193.413 18.6692L194.254 19.21ZM191.805 21.256L192.225 22.164L191.805 21.256ZM178.661 22H177.661V23H178.661V22ZM178.661 0.362V-0.638H177.661V0.362H178.661ZM191.371 1.075L190.96 1.98661L190.967 1.98954L191.371 1.075ZM193.789 3.059L192.945 3.59454L192.95 3.60181L192.954 3.60899L193.789 3.059ZM193.603 9.104L192.824 8.47699L192.82 8.48282L192.815 8.48873L193.603 9.104ZM183.001 9.29H182.001V10.29H183.001V9.29ZM189.356 8.608L189.988 9.38323L189.997 9.37633L190.005 9.36924L189.356 8.608ZM189.356 4.578L190.005 3.81676V3.81676L189.356 4.578ZM183.001 3.865V2.865H182.001V3.865H183.001ZM189.821 17.722L189.184 16.9516L189.177 16.9571L189.171 16.9627L189.821 17.722ZM189.79 13.444L189.136 14.1997L189.143 14.206L189.15 14.2122L189.79 13.444ZM183.001 12.638V11.638H182.001V12.638H183.001ZM183.001 18.466H182.001V19.466H183.001V18.466ZM190.754 11.8851C191.731 12.0672 192.522 12.5449 193.16 13.3517L194.729 12.1103C193.797 10.9331 192.583 10.1915 191.121 9.91894L190.754 11.8851ZM193.16 13.3517C193.804 14.1646 194.122 15.0819 194.122 16.141H196.122C196.122 14.6375 195.656 13.2814 194.729 12.1103L193.16 13.3517ZM194.122 16.141C194.122 17.123 193.88 17.9528 193.416 18.6643L195.092 19.7557C195.786 18.6899 196.122 17.4736 196.122 16.141H194.122ZM193.413 18.6692C192.973 19.3547 192.314 19.9198 191.386 20.348L192.225 22.164C193.446 21.6002 194.42 20.8013 195.096 19.7508L193.413 18.6692ZM191.386 20.348C190.471 20.7707 189.349 21 187.992 21V23C189.571 23 190.991 22.7333 192.225 22.164L191.386 20.348ZM187.992 21H178.661V23H187.992V21ZM179.661 22V0.362H177.661V22H179.661ZM178.661 1.362H187.589V-0.638H178.661V1.362ZM187.589 1.362C188.952 1.362 190.065 1.58298 190.96 1.98659L191.783 0.163413C190.57 -0.383643 189.162 -0.638 187.589 -0.638V1.362ZM190.967 1.98954C191.892 2.39885 192.531 2.94132 192.945 3.59454L194.634 2.52346C193.974 1.48202 193 0.701813 191.776 0.160464L190.967 1.98954ZM192.954 3.60899C193.398 4.28317 193.626 5.05066 193.626 5.942H195.626C195.626 4.684 195.297 3.5295 194.625 2.50901L192.954 3.60899ZM193.626 5.942C193.626 7.01261 193.341 7.83487 192.824 8.47699L194.382 9.73101C195.23 8.67846 195.626 7.39272 195.626 5.942H193.626ZM192.815 8.48873C192.29 9.16218 191.578 9.652 190.637 9.94815L191.238 11.8558C192.529 11.4493 193.595 10.7405 194.392 9.71927L192.815 8.48873ZM183.001 10.29H186.969V8.29H183.001V10.29ZM186.969 10.29C188.135 10.29 189.188 10.035 189.988 9.38323L188.725 7.83276C188.409 8.09035 187.871 8.29 186.969 8.29V10.29ZM190.005 9.36924C190.828 8.66842 191.193 7.69445 191.193 6.593H189.193C189.193 7.22755 189.001 7.59691 188.708 7.84676L190.005 9.36924ZM191.193 6.593C191.193 5.49155 190.828 4.51758 190.005 3.81676L188.708 5.33924C189.001 5.58909 189.193 5.95844 189.193 6.593H191.193ZM190.005 3.81676C189.204 3.13463 188.144 2.865 186.969 2.865V4.865C187.861 4.865 188.393 5.0707 188.708 5.33924L190.005 3.81676ZM186.969 2.865H183.001V4.865H186.969V2.865ZM182.001 3.865V9.29H184.001V3.865H182.001ZM187.372 19.466C188.574 19.466 189.653 19.1831 190.472 18.4813L189.171 16.9627C188.832 17.2529 188.279 17.466 187.372 17.466V19.466ZM190.459 18.4924C191.328 17.7734 191.72 16.7653 191.72 15.614H189.72C189.72 16.2814 189.514 16.6786 189.184 16.9516L190.459 18.4924ZM191.72 15.614C191.72 14.4377 191.315 13.4126 190.431 12.6758L189.15 14.2122C189.506 14.5088 189.72 14.9303 189.72 15.614H191.72ZM190.445 12.6883C189.597 11.9528 188.504 11.638 187.279 11.638V13.638C188.163 13.638 188.744 13.8605 189.136 14.1997L190.445 12.6883ZM187.279 11.638H183.001V13.638H187.279V11.638ZM182.001 12.638V18.466H184.001V12.638H182.001ZM183.001 19.466H187.372V17.466H183.001V19.466ZM210.308 0.362H211.308V-0.638H210.308V0.362ZM210.308 22V23H211.308V22H210.308ZM205.968 22H204.968V23H205.968V22ZM205.968 0.362V-0.638H204.968V0.362H205.968ZM209.308 0.362V22H211.308V0.362H209.308ZM210.308 21H205.968V23H210.308V21ZM206.968 22V0.362H204.968V22H206.968ZM205.968 1.362H210.308V-0.638H205.968V1.362ZM226.447 20.791L226.936 19.9189L226.447 20.791ZM222.417 16.854L221.554 17.3592L221.556 17.3638L222.417 16.854ZM222.417 5.446L223.277 5.95581L223.28 5.95118L222.417 5.446ZM226.447 1.478L225.958 0.605855L226.447 1.478ZM237.607 1.478L237.113 2.34757L237.117 2.35014L237.607 1.478ZM241.606 5.446L240.738 5.94328L240.742 5.94957L240.745 5.9558L241.606 5.446ZM241.606 16.854L240.743 16.3488L240.741 16.3521L241.606 16.854ZM237.607 20.791L237.117 19.9189L237.607 20.791ZM235.468 17.474L235.972 18.3378L235.978 18.3339L235.985 18.3299L235.468 17.474ZM237.793 14.932L238.684 15.3859L237.793 14.932ZM237.793 7.337L236.902 7.79094L236.905 7.79781L237.793 7.337ZM235.468 4.826L234.964 5.68978V5.68978L235.468 4.826ZM228.555 4.826L228.059 3.95772L228.051 3.96222L228.555 4.826ZM226.23 7.337L227.117 7.79783L227.121 7.79093L226.23 7.337ZM226.23 14.932L227.121 14.4781L226.23 14.932ZM228.555 17.474L228.038 18.3299L228.048 18.3362L228.059 18.3422L228.555 17.474ZM232.027 21.217C230.165 21.217 228.475 20.7821 226.936 19.9189L225.958 21.6631C227.808 22.7013 229.838 23.217 232.027 23.217V21.217ZM226.936 19.9189C225.395 19.0544 224.18 17.8671 223.277 16.3442L221.556 17.3638C222.638 19.1889 224.109 20.6263 225.958 21.6631L226.936 19.9189ZM223.28 16.3488C222.385 14.8202 221.929 13.0855 221.929 11.119H219.929C219.929 13.4098 220.465 15.4985 221.554 17.3592L223.28 16.3488ZM221.929 11.119C221.929 9.17493 222.384 7.4627 223.277 5.9558L221.556 4.9362C220.465 6.7773 219.929 8.84707 219.929 11.119H221.929ZM223.28 5.95118C224.183 4.40816 225.398 3.21291 226.936 2.35014L225.958 0.605855C224.106 1.64442 222.635 3.0945 221.554 4.94082L223.28 5.95118ZM226.936 2.35014C228.475 1.48692 230.165 1.052 232.027 1.052V-0.948C229.838 -0.948 227.808 -0.432254 225.958 0.605855L226.936 2.35014ZM232.027 1.052C233.911 1.052 235.599 1.48778 237.113 2.34756L238.101 0.608437C236.267 -0.433114 234.235 -0.948 232.027 -0.948V1.052ZM237.117 2.35014C238.654 3.21186 239.856 4.4046 240.738 5.94328L242.473 4.94872C241.413 3.09806 239.949 1.64547 238.096 0.605855L237.117 2.35014ZM240.745 5.9558C241.638 7.4627 242.094 9.17493 242.094 11.119H244.094C244.094 8.84707 243.557 6.7773 242.466 4.9362L240.745 5.9558ZM242.094 11.119C242.094 13.0855 241.638 14.8202 240.743 16.3488L242.469 17.3592C243.558 15.4985 244.094 13.4098 244.094 11.119H242.094ZM240.741 16.3521C239.86 17.8707 238.657 19.0554 237.117 19.9189L238.096 21.6631C239.946 20.6253 241.409 19.1853 242.471 17.3559L240.741 16.3521ZM237.117 19.9189C235.579 20.7821 233.888 21.217 232.027 21.217V23.217C234.216 23.217 236.245 22.7013 238.096 21.6631L237.117 19.9189ZM232.027 19.342C233.482 19.342 234.807 19.0171 235.972 18.3378L234.964 16.6102C234.144 17.0883 233.176 17.342 232.027 17.342V19.342ZM235.985 18.3299C237.146 17.6282 238.046 16.637 238.684 15.3859L236.902 14.4781C236.423 15.4177 235.773 16.1212 234.951 16.6181L235.985 18.3299ZM238.684 15.3859C239.325 14.1271 239.63 12.6956 239.63 11.119H237.63C237.63 12.4357 237.376 13.5462 236.902 14.4781L238.684 15.3859ZM239.63 11.119C239.63 9.54297 239.325 8.11842 238.68 6.87618L236.905 7.79781C237.376 8.70491 237.63 9.8017 237.63 11.119H239.63ZM238.684 6.88307C238.045 5.62939 237.141 4.64442 235.972 3.96222L234.964 5.68978C235.778 6.16492 236.424 6.85394 236.902 7.79093L238.684 6.88307ZM235.972 3.96222C234.807 3.28292 233.482 2.958 232.027 2.958V4.958C233.176 4.958 234.144 5.21174 234.964 5.68978L235.972 3.96222ZM232.027 2.958C230.571 2.958 229.239 3.28303 228.059 3.95776L229.051 5.69424C229.895 5.21163 230.878 4.958 232.027 4.958V2.958ZM228.051 3.96222C226.881 4.64442 225.977 5.62939 225.339 6.88307L227.121 7.79093C227.598 6.85394 228.244 6.16492 229.059 5.68978L228.051 3.96222ZM225.342 6.87618C224.697 8.11842 224.393 9.54297 224.393 11.119H226.393C226.393 9.8017 226.646 8.70492 227.117 7.79782L225.342 6.87618ZM224.393 11.119C224.393 12.6956 224.697 14.1271 225.339 15.3859L227.121 14.4781C226.646 13.5462 226.393 12.4357 226.393 11.119H224.393ZM225.339 15.3859C225.976 16.637 226.876 17.6282 228.038 18.3299L229.072 16.6181C228.249 16.1212 227.599 15.4177 227.121 14.4781L225.339 15.3859ZM228.059 18.3422C229.239 19.017 230.571 19.342 232.027 19.342V17.342C230.878 17.342 229.895 17.0884 229.051 16.6058L228.059 18.3422Z" fill="#003366" fill-opacity="0.6" mask="url(#path-1-outside-1_1496_2)"/>
</svg>
